<svg xmlns="http://www.w3.org/2000/svg" viewBox="0 0 1000 720" role="img" aria-label="奇趣财富岛卡通城市背景">
  <defs>
    <linearGradient id="sky" x1="0" x2="0" y1="0" y2="1">
      <stop offset="0" stop-color="#9be7ff"/>
      <stop offset="1" stop-color="#65c8ff"/>
    </linearGradient>
    <linearGradient id="grass" x1="0" x2="1">
      <stop offset="0" stop-color="#77d86f"/>
      <stop offset="1" stop-color="#b5ef7a"/>
    </linearGradient>
    <linearGradient id="river" x1="0" x2="1">
      <stop offset="0" stop-color="#29a9ff"/>
      <stop offset="1" stop-color="#12d4e5"/>
    </linearGradient>
    <filter id="softShadow" x="-20%" y="-20%" width="140%" height="140%">
      <feDropShadow dx="0" dy="5" stdDeviation="4" flood-color="#356a80" flood-opacity=".22"/>
    </filter>
  </defs>
  <rect width="1000" height="720" fill="url(#sky)"/>
  <path d="M-20 614C110 562 178 622 294 574C410 526 504 560 610 512C760 444 820 498 1020 416V760H-20Z" fill="url(#grass)"/>
  <path d="M740-20C706 88 790 142 752 236C710 338 777 404 724 494C675 576 718 632 666 750H1010V-20Z" fill="url(#river)" opacity=".88"/>
  <path d="M0 430C118 400 170 438 270 408C404 368 500 418 620 374C702 344 752 352 830 324" fill="none" stroke="#707a84" stroke-width="34" stroke-linecap="round" opacity=".72"/>
  <path d="M0 430C118 400 170 438 270 408C404 368 500 418 620 374C702 344 752 352 830 324" fill="none" stroke="#ffffff" stroke-width="3" stroke-dasharray="18 18" opacity=".75"/>
  <path d="M294 0V720" fill="none" stroke="#707a84" stroke-width="30" opacity=".5"/>
  <path d="M716 0V720" fill="none" stroke="#707a84" stroke-width="30" opacity=".42"/>
  <g filter="url(#softShadow)" opacity=".9">
    <g transform="translate(94 120)">
      <rect x="0" y="28" width="52" height="42" rx="6" fill="#ffe6a4" stroke="#815b34" stroke-width="3"/>
      <path d="M-4 30L26 4l34 26Z" fill="#ff7b32" stroke="#815b34" stroke-width="3"/>
      <rect x="18" y="44" width="14" height="26" fill="#61a5ff"/>
    </g>
    <g transform="translate(142 168)">
      <rect x="0" y="28" width="58" height="46" rx="6" fill="#e6fbff" stroke="#4d6e8d" stroke-width="3"/>
      <path d="M-6 30L30 0l38 30Z" fill="#2f80ed" stroke="#4d6e8d" stroke-width="3"/>
      <rect x="20" y="46" width="16" height="28" fill="#ffd166"/>
    </g>
    <g transform="translate(810 96)">
      <rect x="0" y="20" width="118" height="72" rx="8" fill="#eef8ff" stroke="#3d6f96" stroke-width="4"/>
      <rect x="24" y="-4" width="70" height="36" rx="8" fill="#ffffff" stroke="#3d6f96" stroke-width="4"/>
      <path d="M54 6v18M45 15h18" stroke="#ee3e73" stroke-width="8" stroke-linecap="round"/>
      <rect x="18" y="38" width="18" height="18" fill="#8bd3ff"/>
      <rect x="48" y="38" width="18" height="18" fill="#8bd3ff"/>
      <rect x="78" y="38" width="18" height="18" fill="#8bd3ff"/>
    </g>
    <g transform="translate(426 194)">
      <rect x="0" y="50" width="64" height="136" rx="8" fill="#8bd3ff" stroke="#3266c7" stroke-width="4"/>
      <path d="M12 50L32 0l20 50Z" fill="#ffffff" stroke="#3266c7" stroke-width="4"/>
      <rect x="84" y="28" width="84" height="158" rx="8" fill="#ffe1a7" stroke="#a96d2f" stroke-width="4"/>
      <rect x="184" y="72" width="66" height="114" rx="8" fill="#b6e3ff" stroke="#3266c7" stroke-width="4"/>
    </g>
    <g transform="translate(72 432)">
      <rect x="0" y="30" width="134" height="82" rx="8" fill="#f0f4ff" stroke="#5d3a7d" stroke-width="5"/>
      <path d="M10 30L67 0l58 30Z" fill="#d9f1ff" stroke="#5d3a7d" stroke-width="5"/>
      <rect x="22" y="54" width="22" height="58" fill="#74b8ff"/>
      <rect x="56" y="54" width="22" height="58" fill="#74b8ff"/>
      <rect x="90" y="54" width="22" height="58" fill="#74b8ff"/>
    </g>
    <g transform="translate(444 568)">
      <rect x="0" y="24" width="84" height="62" rx="9" fill="#ffe6a4" stroke="#815b34" stroke-width="4"/>
      <path d="M-5 26L40 0l50 26Z" fill="#ff9f43" stroke="#815b34" stroke-width="4"/>
      <rect x="108" y="0" width="92" height="86" rx="10" fill="#ff9fca" stroke="#9b4367" stroke-width="4"/>
      <path d="M136 0c0-22 36-22 36 0" fill="none" stroke="#9b4367" stroke-width="6"/>
    </g>
    <g transform="translate(780 520)">
      <rect x="0" y="28" width="58" height="46" rx="6" fill="#e5f4ff" stroke="#396889" stroke-width="3"/>
      <path d="M-6 30L30 0l38 30Z" fill="#8b5cf6" stroke="#396889" stroke-width="3"/>
      <rect x="18" y="46" width="16" height="28" fill="#ffd166"/>
      <rect x="76" y="28" width="58" height="46" rx="6" fill="#e6fbff" stroke="#396889" stroke-width="3"/>
      <path d="M70 30L106 0l38 30Z" fill="#2f80ed" stroke="#396889" stroke-width="3"/>
    </g>
    <g transform="translate(86 520)">
      <rect x="0" y="0" width="108" height="88" rx="8" fill="#a4aab3" stroke="#4d5664" stroke-width="5"/>
      <rect x="22" y="-24" width="64" height="36" rx="6" fill="#d7dce3" stroke="#4d5664" stroke-width="5"/>
      <rect x="38" y="42" width="32" height="46" fill="#4d5664"/>
    </g>
  </g>
  <g opacity=".95">
    <circle cx="232" cy="82" r="16" fill="#facc15"/>
    <circle cx="238" cy="86" r="8" fill="#fff176"/>
    <circle cx="904" cy="438" r="18" fill="#facc15"/>
    <circle cx="910" cy="442" r="9" fill="#fff176"/>
    <path d="M866 314c34-28 64-28 98 0" fill="none" stroke="#8b5cf6" stroke-width="10" stroke-linecap="round"/>
    <path d="M866 314c34-18 64-18 98 0" fill="none" stroke="#ffffff" stroke-width="3" stroke-linecap="round"/>
  </g>
</svg>
